<svg width="36" height="36" viewBox="0 0 36 36" fill="none" xmlns="http://www.w3.org/2000/svg">
<path fill-rule="evenodd" clip-rule="evenodd" d="M8.9999 27C9.49696 27.4971 10.3291 27.4709 10.8585 26.9415L26.9413 10.8586C27.4707 10.3292 27.497 9.49708 26.9999 9.00003C26.5028 8.50297 25.6707 8.52919 25.1413 9.05859L9.05847 25.1415C8.52907 25.6709 8.50285 26.503 8.9999 27Z" fill="#484848"/>
<path fill-rule="evenodd" clip-rule="evenodd" d="M26.9999 27C27.497 26.5029 27.4707 25.6708 26.9413 25.1414L10.8585 9.05854C10.3291 8.52914 9.49696 8.50292 8.9999 8.99998C8.50285 9.49704 8.52907 10.3291 9.05847 10.8585L25.1413 26.9414C25.6707 27.4708 26.5028 27.497 26.9999 27Z" fill="#484848"/>
</svg>
